<?xml version="1.0" standalone="no"?>
<!DOCTYPE svg PUBLIC "-//W3C//DTD SVG 20010904//EN"
 "http://www.w3.org/TR/2001/REC-SVG-20010904/DTD/svg10.dtd">
<svg version="1.0" xmlns="http://www.w3.org/2000/svg"
 width="1024.000000pt" height="1024.000000pt" viewBox="0 0 1024.000000 1024.000000"
 preserveAspectRatio="xMidYMid meet">

<g transform="translate(0.000000,1024.000000) scale(0.100000,-0.100000)"
fill="#000000" stroke="none">
<path d="M4995 9100 c-146 -11 -272 -35 -504 -96 -379 -101 -550 -171 -763
-313 -215 -144 -408 -392 -476 -613 -12 -37 -35 -135 -52 -217 -27 -131 -30
-162 -24 -245 4 -53 11 -96 16 -96 22 0 91 57 117 97 28 42 91 210 91 242 0 8
-7 19 -16 25 -14 11 -11 24 24 119 146 397 492 675 997 801 443 111 576 131
798 123 178 -6 254 -24 395 -94 114 -56 194 -127 258 -229 31 -49 52 -74 65
-74 10 0 53 18 96 39 254 129 589 48 813 -196 87 -96 172 -227 210 -324 27
-70 71 -246 105 -419 l7 -35 -54 53 c-30 29 -63 52 -75 52 -27 0 -83 -52 -83
-77 0 -11 14 -47 31 -81 54 -108 203 -216 349 -253 l65 -16 -35 -22 c-88 -54
-226 -67 -327 -29 -44 16 -74 38 -128 92 -109 110 -143 197 -165 425 -6 62
-18 130 -27 150 -9 20 -18 45 -20 55 -5 26 -23 47 -34 40 -5 -3 -4 6 2 20 10
20 8 32 -10 68 -23 47 -83 118 -100 118 -5 0 -23 16 -38 36 -54 69 -175 114
-308 114 -155 0 -256 -46 -240 -108 9 -36 7 -35 55 -22 69 19 184 28 239 19
112 -17 223 -88 267 -170 15 -27 31 -49 36 -49 5 0 8 -10 6 -22 -2 -17 3 -24
20 -26 14 -2 22 -10 22 -23 0 -13 -7 -19 -22 -19 l-23 0 7 -157 c7 -166 17
-220 68 -352 55 -142 144 -255 261 -331 86 -56 154 -73 257 -68 48 3 94 8 104
12 14 6 17 -3 23 -66 4 -40 5 -89 3 -108 -5 -52 -47 -70 -163 -70 -156 0 -276
41 -400 134 -223 169 -323 354 -355 661 -18 168 -62 267 -162 362 -64 60 -143
92 -245 100 l-73 6 0 51 c-1 64 -15 103 -75 208 -69 119 -205 253 -305 300
-92 44 -199 76 -282 86 -92 10 -114 6 -128 -27 -10 -25 -18 -29 -63 -34 -28
-2 -108 -2 -178 1 -387 15 -739 -129 -934 -383 -86 -111 -135 -250 -165 -460
-26 -181 -91 -359 -163 -441 -22 -25 -69 -58 -118 -84 -74 -38 -91 -43 -168
-47 -80 -4 -90 -2 -145 25 l-58 29 46 7 c63 10 234 97 283 144 99 96 120 155
69 199 -15 12 -36 23 -48 23 -11 0 -51 -27 -89 -59 -158 -137 -305 -164 -458
-85 -14 8 -34 14 -44 14 -27 0 -87 -63 -87 -92 0 -45 46 -95 118 -128 94 -44
97 -46 94 -66 -1 -11 -7 -93 -14 -183 -21 -304 24 -423 168 -446 l42 -6 7 -71
c8 -88 48 -229 80 -283 29 -51 115 -132 148 -140 24 -6 25 -10 20 -58 -3 -29
4 -114 16 -191 11 -77 19 -141 17 -143 -6 -6 -135 65 -185 101 -92 68 -161
178 -196 311 -27 106 -14 224 40 349 34 80 36 96 9 96 -8 0 -14 4 -14 9 0 5
-13 12 -30 16 -16 4 -30 10 -30 14 0 4 -8 7 -18 8 -31 2 -104 -133 -131 -241
-14 -55 -15 -244 -2 -296 12 -49 65 -178 92 -225 51 -89 114 -157 194 -210
103 -68 161 -93 264 -114 l84 -18 26 -70 c34 -93 146 -287 226 -394 86 -115
235 -255 381 -358 65 -46 128 -92 139 -101 11 -10 38 -23 60 -30 22 -7 72 -29
110 -49 348 -185 833 -211 1280 -70 55 18 111 40 125 49 35 24 155 80 171 80
21 0 225 141 324 224 91 76 214 206 294 309 59 77 166 267 199 353 l26 71 66
11 c75 13 194 59 261 103 26 17 79 63 118 104 77 81 136 190 167 305 23 87 24
254 1 337 -18 68 -105 253 -118 253 -5 0 4 18 20 41 44 60 55 129 48 298 -4
79 -4 176 0 216 l6 73 48 5 c59 7 123 39 145 72 13 20 15 33 8 58 -15 50 -59
67 -176 67 -94 0 -179 12 -206 29 -11 6 -11 20 -2 70 15 84 -2 299 -35 427
-61 241 -225 475 -449 643 -95 72 -156 102 -272 137 -163 49 -399 44 -532 -11
-19 -8 -36 -15 -37 -15 -1 0 -30 33 -63 74 -93 112 -261 212 -428 256 -142 36
-276 45 -479 30z m262 -576 c167 -37 328 -156 398 -294 26 -52 66 -198 55
-205 -3 -2 -29 -7 -57 -11 l-51 -6 -32 60 c-45 84 -149 211 -228 278 -61 51
-153 104 -192 111 -58 9 -65 8 -68 -14 -2 -13 1 -23 6 -23 13 0 32 -48 25 -65
-4 -11 32 -54 114 -138 106 -108 183 -210 183 -243 0 -14 -75 -34 -129 -34
-34 0 -51 9 -116 63 -166 134 -233 166 -370 174 -124 8 -196 -14 -338 -100
-213 -129 -289 -238 -334 -481 -53 -281 -122 -440 -248 -567 -82 -83 -135
-120 -246 -173 -145 -70 -306 -93 -424 -63 l-50 13 -3 75 c-2 41 -1 92 3 114
l5 40 94 -3 c68 -3 111 1 152 13 128 37 256 120 321 208 99 135 150 276 188
526 29 192 48 255 98 333 43 67 159 177 248 234 133 86 372 144 538 130 62 -5
77 -3 100 13 14 10 44 21 66 24 22 2 58 12 80 20 44 17 109 14 212 -9z m1380
-596 c-3 -7 -5 -2 -5 12 0 14 2 19 5 13 2 -7 2 -19 0 -25z m-1755 -13 c90 -19
147 -45 227 -104 91 -67 156 -88 235 -74 34 6 90 24 126 41 294 135 526 129
637 -16 40 -53 49 -84 69 -247 18 -148 49 -255 106 -370 88 -175 199 -301 353
-401 l75 -49 0 -66 c0 -100 19 -266 37 -332 9 -32 33 -85 55 -118 33 -52 38
-67 38 -120 0 -66 -38 -265 -77 -399 -29 -105 -134 -319 -205 -422 -242 -351
-589 -587 -1014 -689 -219 -52 -543 -39 -789 33 -320 92 -698 373 -881 653
-147 226 -245 524 -271 821 -6 71 -5 72 31 119 61 81 96 235 99 441 l1 91 72
47 c93 61 205 158 266 232 58 70 149 250 176 349 11 39 25 111 32 160 20 148
30 192 56 242 50 94 125 152 229 177 78 19 232 19 317 1z m-1334 -1382 c-14
-185 -35 -253 -79 -253 -44 0 -97 120 -106 242 l-6 78 44 1 c24 0 64 6 89 13
25 8 50 14 55 15 7 1 8 -31 3 -96z m3432 58 c25 -6 60 -11 78 -11 18 0 32 -5
32 -12 0 -25 -33 -128 -41 -128 -5 0 -9 -9 -9 -20 0 -11 -4 -20 -10 -20 -5 0
-7 -6 -4 -14 3 -8 0 -17 -6 -21 -6 -4 -11 -1 -10 6 1 8 -1 24 -5 36 l-7 22
-23 -25 -24 -25 -4 28 c-2 15 -5 0 -6 -34 0 -39 3 -63 10 -63 5 0 8 4 5 9 -4
5 3 7 15 4 l21 -6 -21 -21 c-31 -30 -36 -16 -50 132 -6 70 -14 140 -17 155 -5
25 -3 28 12 23 11 -3 39 -10 64 -15z m298 -18 c-29 -8 -26 -27 13 -91 89 -149
90 -360 1 -527 -53 -100 -204 -215 -316 -241 -25 -6 -27 -5 -18 12 11 20 62
298 62 336 0 13 26 48 64 87 34 36 72 84 83 106 34 65 65 194 65 262 l-1 63
32 -1 c18 -1 25 -3 15 -6z"/>
<path d="M4752 7337 c-27 -28 -28 -50 -4 -68 14 -11 15 -11 5 1 -19 20 -16 41
9 67 12 13 19 23 16 23 -2 0 -14 -10 -26 -23z"/>
<path d="M5694 7342 c19 -22 19 -24 2 -60 -14 -29 -14 -34 -2 -22 28 28 29 64
4 85 l-23 20 19 -23z"/>
<path d="M4445 6891 c-122 -30 -184 -57 -105 -45 40 6 43 5 31 -10 -11 -14
-11 -16 2 -16 8 0 18 6 20 13 3 6 6 2 6 -10 1 -16 7 -23 21 -23 13 0 20 -7 20
-20 0 -13 7 -20 20 -20 13 0 20 7 20 20 0 13 7 20 20 20 17 0 20 7 20 45 0 37
3 43 17 38 11 -4 14 -3 9 5 -4 7 -2 12 3 12 6 0 11 -4 11 -10 0 -5 5 -10 11
-10 5 0 7 5 4 10 -3 6 -5 10 -3 10 43 6 84 13 87 16 15 14 -122 -2 -214 -25z"/>
<path d="M4680 6911 c0 -4 12 -8 28 -8 15 0 36 -3 47 -7 12 -4 10 -1 -5 8 -27
17 -70 21 -70 7z"/>
<path d="M5687 6910 c-21 -14 -47 -62 -47 -89 0 -22 61 -91 80 -91 8 0 5 7 -7
18 -28 25 -34 48 -21 80 7 15 12 36 12 46 1 16 10 20 51 24 92 7 189 3 259
-13 89 -20 97 -13 10 9 -82 21 -312 32 -337 16z"/>
<path d="M6135 6850 c3 -5 14 -10 23 -10 15 0 15 2 2 10 -20 13 -33 13 -25 0z"/>
<path d="M4246 6823 c-30 -8 -109 -73 -129 -106 -22 -36 -14 -82 19 -104 20
-13 21 -12 20 14 -1 16 -5 27 -11 26 -5 -1 -10 11 -10 27 0 18 4 26 13 23 6
-3 13 0 13 6 1 6 3 16 4 21 1 6 3 17 4 26 0 8 5 13 10 10 5 -4 12 0 14 6 4 10
6 10 6 1 1 -8 16 -13 41 -13 33 0 40 3 40 19 0 11 6 22 13 24 9 4 8 8 -3 16
-8 6 -17 10 -20 10 -3 -1 -13 -3 -24 -6z"/>
<path d="M5744 6743 c4 -4 26 -8 49 -9 30 -1 36 1 22 6 -25 11 -81 13 -71 3z"/>
<path d="M4300 6700 c0 -10 7 -21 16 -24 9 -4 14 -9 11 -12 -3 -3 -17 2 -31
11 -15 10 -33 14 -46 10 -22 -7 -28 -35 -7 -35 7 -1 4 -7 -7 -15 -10 -8 -22
-13 -25 -11 -3 1 -14 -5 -23 -16 -10 -10 -15 -18 -12 -18 13 0 104 43 104 49
0 4 8 7 18 8 9 1 61 17 115 35 l99 34 -106 1 c-96 1 -106 -1 -106 -17z"/>
<path d="M4482 6560 c-49 -12 -109 -55 -139 -102 -23 -33 -28 -55 -31 -112 -3
-64 0 -76 28 -124 44 -75 104 -112 182 -112 124 0 214 77 234 198 23 148 -128
288 -274 252z"/>
<path d="M5860 6561 c-116 -24 -185 -118 -178 -242 6 -117 82 -199 189 -207
80 -6 137 17 187 73 65 74 79 163 38 250 -44 97 -137 146 -236 126z"/>
<path d="M5325 5879 c-57 -50 -61 -51 -111 -47 -44 4 -60 11 -94 42 -49 44
-86 46 -109 5 -21 -38 -7 -77 48 -130 49 -48 104 -69 175 -69 103 0 226 91
226 168 0 40 -18 64 -55 76 -15 4 -36 -8 -80 -45z"/>
<path d="M5715 5536 c-16 -7 -37 -25 -45 -40 -32 -62 -145 -126 -263 -150
-101 -21 -290 -21 -376 0 -108 26 -190 70 -252 136 -49 50 -61 58 -93 58 -26
0 -44 -7 -61 -25 -92 -91 78 -260 339 -336 112 -33 330 -37 466 -9 178 36 364
140 404 225 42 88 -34 177 -119 141z"/>
<path d="M7119 6043 c-13 -16 -12 -17 4 -4 9 7 17 15 17 17 0 8 -8 3 -21 -13z"/>
<path d="M3130 6576 c0 -9 30 -14 35 -6 4 6 -3 10 -14 10 -12 0 -21 -2 -21 -4z"/>
<path d="M3260 6132 c0 -24 38 -87 72 -117 l33 -30 -26 30 c-15 17 -38 53 -52
80 -15 28 -26 44 -27 37z"/>
<path d="M3675 4536 c-120 -39 -261 -112 -291 -151 -23 -31 -27 -48 -35 -143
-4 -59 -8 -187 -8 -285 -1 -133 -4 -179 -13 -181 -7 -2 -38 -12 -68 -21 -118
-35 -220 -96 -305 -180 -128 -127 -190 -278 -202 -495 -5 -87 -3 -111 11 -138
9 -18 21 -32 26 -32 6 0 10 -145 10 -392 0 -403 4 -444 42 -525 33 -69 177
-216 240 -244 118 -52 239 -18 303 85 27 44 30 58 30 126 0 68 -3 81 -27 112
-15 20 -43 46 -62 57 -44 28 -135 45 -168 32 -22 -8 -30 -5 -58 24 -17 18 -36
50 -41 71 -4 22 -9 176 -9 343 0 267 2 307 16 322 12 14 18 50 24 146 8 133
18 170 65 239 80 117 301 174 437 112 87 -40 159 -118 193 -207 25 -66 27 -82
22 -158 -7 -100 2 -130 44 -145 23 -8 28 -14 22 -27 -4 -9 -9 -133 -9 -277 -2
-273 -13 -383 -43 -423 -16 -20 -21 -22 -40 -11 -57 30 -195 -45 -239 -130
-53 -102 7 -261 115 -306 92 -39 200 -4 313 102 52 50 75 81 105 145 38 80 39
86 43 213 2 72 -1 259 -6 416 -9 272 -8 286 9 300 58 46 51 261 -12 420 -62
155 -246 344 -395 406 l-34 14 0 223 c0 237 9 328 40 392 16 34 40 141 40 183
0 15 1 15 -85 -12z m-135 -732 c0 -2 -18 -4 -40 -4 -22 0 -40 3 -40 8 0 4 18
6 40 4 22 -2 40 -6 40 -8z m41 -160 c30 -9 47 -19 39 -22 -8 -3 -26 -9 -40
-15 -14 -6 -34 -10 -45 -9 -11 1 -4 -4 15 -9 19 -6 51 -17 70 -26 20 -8 42
-15 50 -16 21 -3 40 -16 40 -27 0 -5 -30 5 -67 23 -65 31 -73 32 -193 32 -112
0 -130 -3 -175 -25 -67 -33 -76 -40 -179 -145 -66 -66 -81 -78 -58 -45 46 65
125 147 151 155 12 3 19 11 15 16 -3 5 -2 9 3 8 9 -3 65 22 73 31 9 10 130 29
148 24 14 -5 15 -4 2 5 -8 6 -10 11 -5 12 6 0 1 4 -10 9 -19 8 -19 9 3 9 26 1
30 18 5 24 -10 3 9 5 43 6 33 0 85 -6 115 -15z m145 -65 c74 -47 129 -94 164
-141 28 -38 28 -39 3 -12 -48 54 -127 114 -149 114 -20 0 -67 40 -48 40 5 1
-2 7 -16 15 -14 8 -20 14 -14 15 5 0 32 -14 60 -31z m-819 -381 c-3 -7 -5 -2
-5 12 0 14 2 19 5 13 2 -7 2 -19 0 -25z m70 0 c-3 -8 -6 -5 -6 6 -1 11 2 17 5
13 3 -3 4 -12 1 -19z m-80 -40 c-3 -8 -6 -5 -6 6 -1 11 2 17 5 13 3 -3 4 -12
1 -19z m1040 -30 c-3 -7 -5 -2 -5 12 0 14 2 19 5 13 2 -7 2 -19 0 -25z m-1050
-30 c-3 -7 -5 -2 -5 12 0 14 2 19 5 13 2 -7 2 -19 0 -25z m91 -538 c3 -410 1
-400 101 -492 55 -51 59 -53 106 -50 44 3 53 0 75 -24 l25 -28 -29 22 c-18 14
-43 22 -67 22 -38 0 -51 -12 -28 -25 7 -5 4 -14 -8 -28 -12 -14 -13 -18 -3
-12 8 4 12 4 7 0 -4 -5 0 -16 8 -26 13 -13 24 -15 50 -9 41 9 46 -2 10 -18
-33 -15 -29 -16 -67 17 -19 16 -58 37 -88 47 -81 26 -139 87 -178 191 -39 100
-52 243 -52 555 0 235 -7 217 90 214 l45 -1 3 -355z m1059 -42 l-2 -393 -27
-46 c-36 -61 -111 -129 -143 -129 -14 0 -25 6 -25 13 0 8 -8 21 -19 31 -28 25
-116 4 -136 -32 -11 -20 -14 -23 -15 -9 0 26 45 67 73 67 68 0 117 43 159 138
25 56 28 119 11 317 -7 77 -15 206 -19 288 l-6 147 75 0 76 0 -2 -392z m-216
-581 c-10 -9 -11 -8 -5 6 3 10 9 15 12 12 3 -3 0 -11 -7 -18z"/>
<path d="M5166 3788 c-97 -125 -214 -294 -245 -356 -12 -24 -38 -65 -57 -92
-19 -26 -34 -54 -34 -63 0 -8 20 -45 44 -82 l45 -66 -40 -282 c-21 -155 -46
-320 -55 -367 -14 -82 -14 -88 5 -132 26 -60 180 -539 224 -698 119 -422 132
-474 152 -585 7 -36 12 -21 56 160 26 110 64 254 83 320 104 358 150 507 206
663 l62 173 -13 92 c-7 51 -34 220 -60 376 l-48 284 27 27 c15 15 38 48 51 73
l24 45 -33 42 c-18 23 -53 80 -77 126 -82 160 -238 374 -273 374 -11 0 -31
-15 -44 -32z"/>
<path d="M6745 3669 c-48 -43 -76 -94 -120 -224 -28 -83 -40 -139 -49 -227
l-11 -118 -45 48 c-53 57 -246 187 -301 203 -85 26 -155 -20 -165 -107 -12
-98 59 -291 152 -413 31 -40 54 -74 52 -75 -2 -1 -34 -7 -73 -14 -107 -18
-142 -30 -180 -63 -66 -58 -59 -128 22 -206 63 -62 187 -125 281 -144 50 -11
61 -16 56 -29 -42 -98 -38 -141 17 -178 29 -20 41 -22 84 -16 79 10 158 38
208 73 l47 32 0 -43 c0 -82 58 -136 116 -109 28 12 63 81 64 124 0 30 11 35
31 11 23 -28 109 -65 186 -80 95 -18 86 -19 128 17 31 27 35 37 35 78 0 27 -8
61 -19 82 l-19 36 32 1 c119 5 287 103 359 212 35 52 12 130 -46 162 -34 18
-158 48 -199 48 -50 0 -49 13 6 97 58 91 98 180 130 290 34 118 33 145 -3 185
-25 28 -34 32 -78 31 -81 -1 -252 -93 -349 -187 l-54 -52 0 39 c0 100 -81 391
-135 483 -43 74 -100 86 -160 33z m101 -270 c73 -226 79 -351 29 -568 -19 -83
-23 -116 -15 -136 8 -22 13 -24 29 -15 30 15 64 65 110 160 33 69 57 101 123
167 82 80 265 216 279 207 13 -7 -26 -125 -69 -209 -68 -135 -118 -192 -257
-295 -89 -66 -135 -110 -135 -131 0 -10 3 -20 8 -22 4 -3 50 8 103 23 53 15
118 30 145 33 60 6 266 -11 278 -24 15 -14 -30 -55 -87 -80 -96 -41 -160 -50
-310 -44 -98 4 -138 2 -135 -6 2 -6 7 -9 11 -7 4 2 15 -11 26 -27 10 -17 48
-57 85 -89 36 -32 66 -62 66 -67 0 -16 -48 -21 -83 -10 -19 7 -80 52 -137 102
-57 49 -107 88 -111 87 -4 -2 -18 -19 -31 -38 -59 -88 -268 -200 -285 -152 -5
13 17 36 131 135 36 32 66 63 66 69 0 8 -23 8 -72 2 -151 -17 -264 -5 -353 39
-99 48 -155 96 -112 97 6 0 46 5 87 10 94 13 269 -5 322 -31 51 -26 138 -24
138 2 0 23 -90 103 -163 145 -46 27 -109 74 -142 108 -102 104 -223 356 -179
373 16 6 86 -45 222 -160 98 -84 136 -128 191 -226 48 -86 92 -131 119 -124
29 7 28 26 -4 148 -22 85 -26 122 -27 240 0 125 3 152 30 255 38 142 50 173
65 168 6 -2 26 -51 44 -109z"/>
<path d="M7410 2056 c0 -2 7 -7 16 -10 8 -3 12 -2 9 4 -6 10 -25 14 -25 6z"/>
<path d="M6195 2001 c-128 -36 -208 -92 -274 -190 -56 -83 -69 -112 -86 -192
-20 -92 -8 -162 46 -277 49 -102 121 -177 213 -222 54 -27 81 -33 153 -37 108
-7 182 8 272 53 119 59 200 164 235 305 21 86 20 149 -4 234 -45 158 -180 286
-347 329 -76 20 -132 19 -208 -3z m247 -169 c166 -95 225 -260 151 -420 -48
-106 -151 -173 -273 -180 -89 -5 -138 10 -212 66 -87 66 -128 144 -128 246 0
91 21 153 71 210 74 84 154 118 265 113 58 -3 81 -10 126 -35z"/>
<path d="M6239 1743 c-9 -10 -14 -41 -14 -80 l0 -65 -63 -1 c-74 -2 -92 -18
-92 -79 0 -53 30 -72 103 -63 l54 7 6 -48 c6 -55 33 -84 78 -84 40 0 64 38 55
88 l-6 38 61 -4 c52 -4 63 -2 85 19 28 26 30 46 10 94 -15 35 -15 35 -80 35
l-66 0 0 63 c0 49 -4 68 -18 80 -25 22 -95 22 -113 0z"/>
</g>
</svg>
