<?xml version="1.0" encoding="utf-8"?>
<!-- Generator: Adobe Illustrator 28.1.0, SVG Export Plug-In . SVG Version: 6.00 Build 0)  -->
<svg version="1.1" id="Ebene_1" xmlns="http://www.w3.org/2000/svg" xmlns:xlink="http://www.w3.org/1999/xlink" x="0px" y="0px"
	 viewBox="0 0 538.58 566.93" style="enable-background:new 0 0 538.58 566.93;" xml:space="preserve">
<style type="text/css">
	.st0{fill:none;}
	.st1{fill:#003F51;}
	.st2{fill:url(#SVGID_1_);}
	.st3{fill:#1A1A18;}
	.st4{fill:url(#SVGID_00000093149396717736990060000003193758068139265200_);}
	.st5{fill:url(#SVGID_00000056405457651453190140000007561192772843933863_);}
	.st6{fill:url(#SVGID_00000090989326240168394180000005783258458973401499_);}
	.st7{fill:url(#SVGID_00000110445465913593297080000017161804204687026086_);}
	.st8{fill:url(#SVGID_00000074442677322107297330000013662064235492129678_);}
	.st9{fill:url(#SVGID_00000170959162568914997790000011560086424210130838_);}
	.st10{fill:#ADBC10;}
	.st11{fill:url(#SVGID_00000119112132855409257280000001686910705219478199_);}
	.st12{fill:url(#SVGID_00000101791467385613871820000009527472120690685076_);}
	.st13{fill:url(#SVGID_00000027591896322064692850000001400160279866648463_);}
</style>
<g>
	<rect class="st0" width="538.58" height="566.93"/>
	<g>
		<path class="st1" d="M117.44,458.01c0.15-0.45,0.38-0.75,0.83-0.75h0.98c0.45,0,0.68,0.3,0.83,0.75l17.92,49.7
			c0.15,0.45-0.08,0.75-0.53,0.75h-1.05c-0.45,0-0.75-0.15-0.98-0.75l-4.97-13.93H106.9l-5.04,13.93c-0.23,0.6-0.53,0.75-0.98,0.75
			h-0.98c-0.45,0-0.68-0.3-0.53-0.75L117.44,458.01z M129.64,491.6l-10.84-30.35h-0.15l-10.99,30.35H129.64z"/>
		<path class="st1" d="M148.46,458.01c0-0.45,0.3-0.75,0.75-0.75h0.83c0.45,0,0.75,0.3,0.75,0.75v31.7l26.58-31.7
			c0.45-0.53,0.75-0.75,1.28-0.75h1.36c0.45,0,0.68,0.38,0.38,0.75l-16.34,19.43l17.39,30.27c0.23,0.38,0.08,0.75-0.38,0.75h-1.28
			c-0.45,0-0.75-0.23-1.05-0.75l-16.34-28.39l-11.6,13.86v14.53c0,0.45-0.3,0.75-0.75,0.75h-0.83c-0.45,0-0.75-0.3-0.75-0.75V458.01
			z"/>
		<path class="st1" d="M205.46,458.01c0.15-0.45,0.38-0.75,0.83-0.75h0.98c0.45,0,0.68,0.3,0.83,0.75l17.92,49.7
			c0.15,0.45-0.08,0.75-0.53,0.75h-1.05c-0.45,0-0.75-0.15-0.98-0.75l-4.97-13.93h-23.57l-5.04,13.93c-0.23,0.6-0.53,0.75-0.98,0.75
			h-0.98c-0.45,0-0.68-0.3-0.53-0.75L205.46,458.01z M217.66,491.6l-10.84-30.35h-0.15l-10.99,30.35H217.66z"/>
		<path class="st1" d="M236.48,458.01c0-0.45,0.3-0.75,0.75-0.75h15.06c8.36,0,13.86,3.16,16.04,9.94c1.05,3.24,1.43,6.1,1.43,15.66
			s-0.38,12.42-1.43,15.66c-2.18,6.78-7.68,9.94-16.04,9.94h-15.06c-0.45,0-0.75-0.3-0.75-0.75V458.01z M239.27,506.28h13.03
			c7.08,0,11.9-2.49,13.78-8.28c0.98-3.01,1.36-5.87,1.36-15.14c0-9.26-0.38-12.12-1.36-15.14c-1.88-5.8-6.7-8.28-13.78-8.28h-13.03
			c-0.3,0-0.45,0.15-0.45,0.45v45.93C238.82,506.13,238.97,506.28,239.27,506.28z"/>
		<path class="st1" d="M283.32,458.01c0-0.45,0.3-0.75,0.75-0.75h28.16c0.45,0,0.75,0.3,0.75,0.75v0.68c0,0.45-0.3,0.75-0.75,0.75
			H286.1c-0.3,0-0.45,0.15-0.45,0.45v21.01c0,0.3,0.15,0.45,0.45,0.45h22.59c0.45,0,0.75,0.3,0.75,0.75v0.68
			c0,0.45-0.3,0.75-0.75,0.75H286.1c-0.3,0-0.45,0.15-0.45,0.45v21.84c0,0.3,0.15,0.45,0.45,0.45h26.13c0.45,0,0.75,0.3,0.75,0.75
			v0.68c0,0.45-0.3,0.75-0.75,0.75h-28.16c-0.45,0-0.75-0.3-0.75-0.75V458.01z"/>
		<path class="st1" d="M324.73,458.01c0-0.45,0.3-0.75,0.75-0.75h1.05c0.38,0,0.75,0.23,0.98,0.75l17.85,39.31h0.23l17.77-39.31
			c0.23-0.53,0.6-0.75,0.98-0.75h1.05c0.45,0,0.75,0.3,0.75,0.75v49.7c0,0.45-0.3,0.75-0.75,0.75h-0.83c-0.45,0-0.75-0.3-0.75-0.75
			v-44.43h-0.23l-16.72,36.6c-0.3,0.6-0.53,0.75-1.28,0.75h-0.3c-0.75,0-0.98-0.15-1.28-0.75l-16.72-36.6h-0.23v44.43
			c0,0.45-0.3,0.75-0.75,0.75h-0.83c-0.45,0-0.75-0.3-0.75-0.75V458.01z"/>
		<path class="st1" d="M381.51,458.01c0-0.45,0.3-0.75,0.75-0.75h0.83c0.45,0,0.75,0.3,0.75,0.75v49.7c0,0.45-0.3,0.75-0.75,0.75
			h-0.83c-0.45,0-0.75-0.3-0.75-0.75V458.01z"/>
		<path class="st1" d="M399.2,458.01c0-0.45,0.3-0.75,0.75-0.75h28.16c0.45,0,0.75,0.3,0.75,0.75v0.68c0,0.45-0.3,0.75-0.75,0.75
			h-26.13c-0.3,0-0.45,0.15-0.45,0.45v21.01c0,0.3,0.15,0.45,0.45,0.45h22.59c0.45,0,0.75,0.3,0.75,0.75v0.68
			c0,0.45-0.3,0.75-0.75,0.75h-22.59c-0.3,0-0.45,0.15-0.45,0.45v21.84c0,0.3,0.15,0.45,0.45,0.45h26.13c0.45,0,0.75,0.3,0.75,0.75
			v0.68c0,0.45-0.3,0.75-0.75,0.75h-28.16c-0.45,0-0.75-0.3-0.75-0.75V458.01z"/>
	</g>
	
		<linearGradient id="SVGID_1_" gradientUnits="userSpaceOnUse" x1="313.7126" y1="26.6839" x2="356.2806" y2="33.9682" gradientTransform="matrix(0.9995 -0.0321 0.0321 0.9995 -58.8494 108.1326)">
		<stop  offset="0" style="stop-color:#C7D300"/>
		<stop  offset="1" style="stop-color:#93A10E"/>
	</linearGradient>
	<path class="st2" d="M255.53,124.92C255.53,124.92,255.53,124.92,255.53,124.92c-4.12,28.74,2,55.86,13.86,75.63
		c14.21-18.55,25.05-42.66,29.7-69.85c0,0,0,0,0,0c4.62-27.2,2.02-53.08-7.11-74.87C273.35,71.56,259.6,96.18,255.53,124.92z"/>
	<path class="st3" d="M478.31,285.06c0.01,0,0.01,0,0.02-0.01c0.02,0,0.05,0,0.07,0C478.37,285.07,478.35,285.07,478.31,285.06z"/>
	<path class="st3" d="M478.44,285.01c0,0-0.01,0-0.01-0.01C478.44,285,478.44,285.01,478.44,285.01z"/>
	
		<linearGradient id="SVGID_00000115507287650478589950000009796060562921563300_" gradientUnits="userSpaceOnUse" x1="213.4646" y1="94.1871" x2="310.0961" y2="128.674" gradientTransform="matrix(0.9995 -0.0321 0.0321 0.9995 -58.8494 108.1326)">
		<stop  offset="0" style="stop-color:#7C922C"/>
		<stop  offset="1" style="stop-color:#617521"/>
	</linearGradient>
	<path style="fill:url(#SVGID_00000115507287650478589950000009796060562921563300_);" d="M205.26,193
		c-0.52-0.66-1.02-1.34-1.53-2.01c-16.81-2.3-32.89,0.25-45.96,7.28c12.48,16.1,30.46,27.89,51.04,32.47c0,0,0,0,0,0
		c16.1,3.59,31.56,2.41,45.21-2.02C236.37,222.82,219.22,210.65,205.26,193z"/>
	
		<linearGradient id="SVGID_00000081609827159060079410000005758596069184509868_" gradientUnits="userSpaceOnUse" x1="251.4707" y1="72.3806" x2="296.3719" y2="72.3806" gradientTransform="matrix(0.9995 -0.0321 0.0321 0.9995 -58.8494 108.1326)">
		<stop  offset="1.429113e-04" style="stop-color:#23B7CC"/>
		<stop  offset="1" style="stop-color:#00949F"/>
	</linearGradient>
	<path style="fill:url(#SVGID_00000081609827159060079410000005758596069184509868_);" d="M210.14,187.84
		C210.14,187.84,210.14,187.84,210.14,187.84c16.04,20.42,35.81,32.39,54.83,36.41c-2.62-21.25-11.28-43.73-26.59-64.12c0,0,0,0,0,0
		c-15.29-20.34-34.66-34.96-54.37-41.5C185.01,142.32,194.12,167.47,210.14,187.84z"/>
	
		<linearGradient id="SVGID_00000072277630285677489700000017592024687627402902_" gradientUnits="userSpaceOnUse" x1="379.3181" y1="114.7849" x2="397.529" y2="136.1827" gradientTransform="matrix(0.9995 -0.0321 0.0321 0.9995 -58.8494 108.1326)">
		<stop  offset="0" style="stop-color:#7C922C"/>
		<stop  offset="1" style="stop-color:#617521"/>
	</linearGradient>
	<path style="fill:url(#SVGID_00000072277630285677489700000017592024687627402902_);" d="M335.72,198.59
		c-0.59,0.51-1.16,1.04-1.76,1.55c-16.01,13.64-33.74,23.97-51.65,29.08c13.44,4.83,28.92,6.07,45.19,3.39c0,0,0,0,0,0
		c20.77-3.45,39.24-12.41,53.31-23.73C368.48,202.33,352.81,198.39,335.72,198.59z"/>
	
		<linearGradient id="SVGID_00000145053059920204323900000001734844188475945093_" gradientUnits="userSpaceOnUse" x1="363.9948" y1="70.0556" x2="385.165" y2="98.9654" gradientTransform="matrix(0.9995 -0.0321 0.0321 0.9995 -58.8494 108.1326)">
		<stop  offset="0" style="stop-color:#AE1570"/>
		<stop  offset="1" style="stop-color:#79155C"/>
	</linearGradient>
	<path style="fill:url(#SVGID_00000145053059920204323900000001734844188475945093_);" d="M329.79,195.15
		C329.79,195.15,329.79,195.15,329.79,195.15c-18.67,15.81-39,26.15-58.28,29.26c3.91-20.98,15.9-42.19,35.22-57.94c0,0,0,0,0,0
		c19.3-15.8,42.18-23.28,62.92-23.81C362.23,160.84,348.43,179.28,329.79,195.15z"/>
	
		<linearGradient id="SVGID_00000106838145207240708040000014387131676651897733_" gradientUnits="userSpaceOnUse" x1="287.4703" y1="149.4301" x2="306.7836" y2="170.4228" gradientTransform="matrix(0.9995 -0.0321 0.0321 0.9995 -58.8494 108.1326)">
		<stop  offset="0" style="stop-color:#F49A00"/>
		<stop  offset="1" style="stop-color:#DE7E00"/>
	</linearGradient>
	<path style="fill:url(#SVGID_00000106838145207240708040000014387131676651897733_);" d="M251.98,268.14
		C251.98,268.14,251.98,268.14,251.98,268.14c7.99-9.95,12.33-22.29,13-34.77c-11.23,0.32-22.45,5.22-30.72,15.17c0,0,0,0,0,0
		c-8.28,9.93-12.03,23.12-11.4,36.29C233.67,283.8,243.97,278.06,251.98,268.14z"/>
	
		<linearGradient id="SVGID_00000144316471903933207190000006544441871136623032_" gradientUnits="userSpaceOnUse" x1="349.2089" y1="147.7056" x2="350.3488" y2="180.0034" gradientTransform="matrix(0.9995 -0.0321 0.0321 0.9995 -58.8494 108.1326)">
		<stop  offset="0" style="stop-color:#0093D3"/>
		<stop  offset="1" style="stop-color:#0072B5"/>
	</linearGradient>
	<path style="fill:url(#SVGID_00000144316471903933207190000006544441871136623032_);" d="M286.4,271.59
		C286.4,271.59,286.4,271.59,286.4,271.59c-9.64-10.25-14.79-24.13-14.96-38.16c12.7,0.72,25.05,6.45,34.39,16.69c0,0,0,0,0,0
		c9.35,10.26,14.1,23.19,14.75,36.44C308.33,286.64,296.05,281.85,286.4,271.59z"/>
	<path class="st10" d="M270.87,317.51c0.38-11.88,0.38-23.83-0.1-35.92c-0.48-12.16-1.45-24.13-2.89-35.97
		c-1.53,11.78-2.06,23.8-1.55,35.95C266.85,293.79,268.42,305.81,270.87,317.51z"/>
	<path class="st1" d="M345.37,349.81c0.01-0.02,0.02-0.04,0.04-0.08c0,0.01-0.01,0.02-0.02,0.03
		C345.38,349.78,345.37,349.8,345.37,349.81z"/>
	<path class="st1" d="M313.85,369.35c-0.02,0.01-0.02,0.01-0.03,0.01c-0.01,0-0.02,0-0.03,0c0.04-0.02,0.1-0.05,0.12-0.04
		C313.88,369.33,313.86,369.34,313.85,369.35z"/>
	<path class="st1" d="M313.76,369.37c-0.02,0-0.04,0-0.04,0C313.7,369.31,313.73,369.33,313.76,369.37z"/>
	<path class="st1" d="M313.77,369.37C313.77,369.37,313.77,369.38,313.77,369.37C313.74,369.39,313.75,369.38,313.77,369.37z"/>
	<path class="st1" d="M345.48,349.57c-0.01,0.02-0.01,0.03-0.02,0.05c0,0,0,0,0,0C345.47,349.6,345.48,349.59,345.48,349.57z"/>
	<path class="st1" d="M355.33,346.69c0.01-0.06,0.01-0.11,0.02-0.14C355.34,346.6,355.34,346.65,355.33,346.69z"/>
	<path class="st1" d="M337.74,368.47c-0.01,0-0.02,0-0.03,0.01c0,0-0.01-0.01-0.02-0.01C337.74,368.43,337.75,368.45,337.74,368.47z
		"/>
	<path class="st1" d="M337.67,368.47c0,0,0.01,0.01,0.01,0.01C337.61,368.49,337.66,368.47,337.67,368.47z"/>
	<path class="st1" d="M367.9,348.93C367.93,348.86,367.95,348.83,367.9,348.93L367.9,348.93z"/>
	<path class="st1" d="M351.63,368.99C351.66,368.8,351.67,368.75,351.63,368.99L351.63,368.99z"/>
	<polygon class="st1" points="385.59,346.58 385.59,346.58 385.59,346.58 	"/>
	<path class="st1" d="M385.51,346.66c0,0,0.01,0,0.01-0.01c0.02-0.02,0.03-0.03,0.04-0.04c0,0,0,0,0.01,0
		C385.54,346.64,385.52,346.66,385.51,346.66z"/>
	<path class="st1" d="M363.84,368.94c0-0.02,0-0.04,0-0.06C363.86,369.01,363.85,369.01,363.84,368.94z"/>
	<path class="st1" d="M411.51,358.12C411.45,358.43,411.48,358.3,411.51,358.12L411.51,358.12z"/>
	<path class="st1" d="M197.59,367.85c-59.01,59.39-127.9,83.55-134.52,61.89c-5.24-17.14,20.19-42.5,66.03-66.1
		c11.97-22.17,28.57-47.8,37.46-56.39c3.28-3.16,7.27-1.45,7.27-1.45c-7.84,9.64-23.67,32.52-36.26,53.61
		c4.62-2.24,9.42-4.45,14.39-6.63c7.54-3.31,12.12-2.14,11.35-1.82c-8.55,3.54-18.73,8.5-29.15,14.27
		c-9.71,16.85-16.58,31.58-14.46,36c-1.87,2.26-8.61,3.69-2.29-13.06c1.9-5.02,4.81-11.29,8.31-18.12
		c-29.94,17.63-58.89,40.56-54.58,54.6c5.29,17.25,79.52-15.93,120.35-60.7c40.83-44.77,22.92-80.72-29.7-69.07
		c-75.11,16.63-111.24,74.35-96.89,78.55c-26.93-6.61,15.1-63.86,90.36-79.96C230.53,277.38,240.4,324.76,197.59,367.85z
		 M230.09,359.57c-1.41,0.7-7.53,2.58-17.75,15.25c-0.08-0.07-0.16-0.14-0.25-0.21c0.05-0.56,0.08-1.13,0.16-1.67
		c0.24-1.68,0.5-3.34,0.73-5.01c0.08-0.6,0.14-1.23-0.33-1.9c-2.13-1.37-14.66,7.59-13.84,9.26c5.85-2.43,8.4-2.08,8.4-2.08
		s-1.63,8.77-2.01,11.57c-0.1,0.74-0.27,1.46,0.16,2.34c0.4,0.43,0.78,0.57,1.09,0.32c0.33-0.26,14.5-17.64,28.29-23.21
		C235.17,363.09,233.36,359.84,230.09,359.57z M223.71,382.72c-1.77,0.37-3.24,1.25-4.29,2.71c-0.45,0.62-0.89,1.34-0.54,2.22
		c0.56,0.9,1.41,0.87,2.19,0.69c1.71-0.39,3.15-1.29,4.12-2.75c0.4-0.6,0.83-1.3,0.46-2.18
		C225.19,382.66,224.46,382.57,223.71,382.72z M345.37,408.91c-54.36,31.9-123.39,41.23-74.12-41.13
		c38.8-64.86,125.91-105.97,76.27-22.45c2.6-0.75,10.91-10.41,16.33-23.26c28.13-66.62-64.13-17.69-100.98,46.52
		c-52.99,92.31,36.73,78,89.15,37.74C352.02,406.33,351.86,405.1,345.37,408.91z M453.06,375.24
		C453.06,375.24,453.06,375.24,453.06,375.24C453.06,375.24,453.06,375.24,453.06,375.24C453.06,375.24,453.06,375.24,453.06,375.24
		z M508.39,361.2c-10.4,1.52-20.6,4.06-30.62,7.17c-1.94,0.6-6.08,1.92-10.6,3.88c-0.38-0.74-0.79-1.46-1.18-2.19
		c-0.2-0.37-0.39-0.74-0.56-1.11c-0.09-0.19-0.18-0.38-0.26-0.58c-0.02-0.06-0.04-0.09-0.05-0.12c-0.01-0.04-0.03-0.08-0.05-0.15
		c-0.07-0.2-0.14-0.41-0.2-0.62c-0.02-0.08-0.15-0.61-0.16-0.61c-0.01-0.08-0.03-0.16-0.04-0.23c-0.02-0.11-0.03-0.23-0.04-0.34
		c0-0.01,0-0.02,0-0.04c0-0.07,0.02-0.25,0.04-0.37c0.03-0.15,0.05-0.28,0.04-0.25c0.02-0.09,0.04-0.17,0.04-0.2
		c0.11-0.32,0.23-0.64,0.36-0.95c0.47-1.14,0.62-2.71,0.26-3.9c-0.22-0.73-0.85-1.44-1.57-0.68c-3.93,4.16-8.23,8.12-12.84,11.6
		c-1.63,1.23-3.31,2.4-5.09,3.43c-1.31,0.76-2.98,1.74-4.43,1.94c-0.22,0.03-0.47,0.05-0.7,0.03c0.05-0.13,0.1-0.26,0.15-0.39
		c0.03-0.07,0.06-0.15,0.1-0.22c0.02-0.03,0.16-0.34,0.2-0.42c0.22-0.45,0.46-0.89,0.7-1.33c0.48-0.86,0.99-1.71,1.52-2.54
		c1.12-1.74,2.33-3.39,3.66-5c0.95-1.16,1.2-2.91,1.02-4.33c-0.09-0.7-0.74-2.52-1.7-1.35c-2.65,3.23-5.09,6.72-6.85,10.46
		c-0.88,1.86-1.62,3.78-1.88,5.82c-0.2,1.53-0.34,3.99,1.01,5.17c0.95,0.82,2.26,0.55,3.37,0.21c2.05-0.62,3.95-1.82,5.71-2.97
		c3.85-2.52,7.38-5.5,10.74-8.58c1.16-1.06,2.29-2.13,3.41-3.23c0.09,1.95,0.51,3.88,1.33,5.73c0.01,0.03,0.03,0.08,0.05,0.13
		c-7.46,3.76-14.59,9.16-13.64,15.85c0.4,2.8,3.53,3.21,5.99,2.43c10.55-3.34,13.14-11.96,12.39-17.3
		c13.69-5.63,32.78-9.64,39.52-10.62C509.68,364.1,509.9,360.98,508.39,361.2z M462.83,382.86c-2.9,4.05-10.66,6.33-9.73,2.17
		c0.75-3.35,5.02-6.51,10.92-9.33C464.4,377.78,464.45,380.6,462.83,382.86z M458.32,351.82c0.43,0.06,0.62,0.68,0.31,1.03
		c-1.84,2.09-3.18,3.73-5.38,5.83c-1.62,1.55-3.2-1.44-2.94-2.65C450.69,354.17,452.12,350.91,458.32,351.82z M452.84,306.67
		c-0.79,0.29-1.49,0.94-2.1,1.46c-0.97,0.82-1.87,1.72-2.74,2.63c-12.53,13.08-21.42,29.01-29.26,44.91
		c-1.65,3.36-3.35,6.79-4.68,10.32c-2.43,2.71-4.95,5.35-7.6,7.87c-0.93,0.88-1.88,1.75-2.86,2.58c-0.17,0.15-0.35,0.29-0.52,0.43
		c-0.03,0.02-0.1,0.08-0.16,0.13c-0.06,0.04-0.11,0.09-0.17,0.13c-0.35,0.26-0.69,0.52-1.05,0.77c-0.49,0.34-1,0.61-1.54,0.88
		c0.14-0.64,0.3-1.28,0.48-1.91c0.07-0.26,0.15-0.53,0.23-0.79c0.02-0.07,0.04-0.14,0.06-0.18c0.08-0.26,0.17-0.52,0.25-0.78
		c0.85-2.6,1.83-5.16,2.87-7.7c0.18-0.45,0.37-0.9,0.56-1.35c0.48-1.13,0.62-2.72,0.26-3.9c-0.19-0.62-0.94-1.57-1.57-0.68
		c-2.38,3.36-4.98,6.6-7.71,9.7c-2.05,2.32-4.2,4.59-6.6,6.58c-1.46,1.21-3.84,2.93-5.71,2.92c-0.45,0-0.6-0.26-0.75-0.51
		c-0.02-0.04-0.09-0.18-0.12-0.26c-0.03-0.09-0.05-0.17-0.08-0.26c-0.02-0.07-0.04-0.17-0.04-0.22c-0.01-0.08-0.01-0.13-0.02-0.17
		c0-0.03,0-0.06,0-0.12c0-0.03,0-0.06,0-0.1c0.02-0.17,0.05-0.4,0.07-0.51c0.04-0.18,0.1-0.44,0.1-0.43
		c0.02-0.1,0.04-0.18,0.05-0.22c0.02-0.05,0.05-0.12,0.09-0.23c0.47-1.19,6.25-12.93,11.87-10.8c0.69,0.26,1.17,0.91,1.44,1.39
		c0.7,1.28,1.71-0.24,1.98-0.95c0.49-1.28,0.74-3.17,0.05-4.43c-2.77-5.07-9.3,0.81-11.68,3.17c-4.26,4.22-8.06,8.87-12.62,12.82
		c-0.69,0.6-1.39,1.18-2.19,1.65c-0.16,0.09-0.32,0.18-0.49,0.26c0.04-0.09,0.07-0.18,0.1-0.26c0.17-0.4,0.34-0.8,0.52-1.2
		c0.09-0.2,0.18-0.41,0.28-0.61c0.04-0.09,0.09-0.19,0.13-0.28c0.81-1.72,1.68-3.42,2.52-5.13c0.74-1.51,1.52-3.03,2.08-4.62
		c0.62-1.76,1.34-4.39,0.25-6.11c-1.33-2.11-4.99,2.22-5.86,3.09c-4.09,4.09-7.74,8.57-11.68,12.79
		c-0.04-3.21,7.05-13.15,6.86-14.57c-0.09-0.66-0.24-2.88-1.21-3c-0.61-0.08-1.19,0.72-1.59,1.3c-0.37,0.45-0.7,0.93-1,1.43
		c-12.53,17.39-17.09,17.64-17.15,17.67c0.01-0.03,0.02-0.07,0.03-0.1c0.06-0.2,0.12-0.41,0.18-0.61c0.03-0.08,0.05-0.16,0.08-0.25
		c0.32-1.03,0.66-2.05,1.01-3.07c0.65-1.92,1.33-3.84,1.94-5.78c0.58-1.84,1.19-3.75,1.18-5.69c-0.01-1.36-0.47-3.61-2.36-2.67
		c-1.15,0.57-2.12,1.7-2.96,2.62c-2.75,3.01-5.15,6.32-7.59,9.57c-1.42,1.89-2.79,3.85-4.31,5.69c0.04-3.41,6.17-15.48,5.99-16.9
		c-0.11-0.83-0.66-2.38-1.7-1.35c-1.86,1.84-3.38,4.04-5.04,6.03c-2.53,3.03-8.04,9.43-12.45,12.01c0.15-0.7,0.33-1.4,0.52-2.09
		c0.08-0.29,0.17-0.58,0.25-0.86c0.02-0.08,0.05-0.16,0.06-0.2c0.09-0.28,0.18-0.57,0.27-0.85c0.93-2.85,2-5.65,3.14-8.43
		c0.2-0.49,0.4-0.99,0.61-1.48c0.53-1.23,0.68-2.98,0.29-4.27c-0.21-0.68-1.03-1.72-1.72-0.74c-2.61,3.68-5.45,7.22-8.45,10.62
		c-2.24,2.54-9.8,10.34-14.62,10.36c-0.5,0-0.66-0.29-0.82-0.56c-0.03-0.04-0.09-0.2-0.13-0.29c-0.03-0.09-0.06-0.19-0.08-0.29
		c-0.02-0.08-0.04-0.18-0.05-0.24c-0.01-0.09-0.01-0.14-0.02-0.19c0-0.03,0-0.07,0-0.13c0-0.03,0-0.07,0-0.11
		c0.03-0.19,0.06-0.44,0.07-0.56c0.05-0.19,0.11-0.48,0.11-0.47c0.03-0.11,0.04-0.19,0.05-0.25c0.02-0.05,0.06-0.13,0.1-0.25
		c0.51-1.3,6.92-13.54,13.1-11.34c0.76,0.27,1.19,0.51,1.48,1.04c0.76,1.4,1.87-0.26,2.17-1.04c0.54-1.4,0.81-3.47,0.05-4.85
		c-3.03-5.55-10.05,1.03-12.78,3.47c-7.65,6.8-15.49,23.48-3.84,23.06c1.35-0.05,2.71-0.65,3.84-1.3c3.16-1.8,12.79-10.6,14.37-12.5
		c-0.4,1.48-0.73,2.97-0.98,4.46c-0.29,1.71-0.99,8.16,2.52,7.26c1.62-0.42,3.06-1.75,4.3-2.76c1.29-1.04,5.57-6.21,7.77-8.75
		c0.02-0.02,0.04-0.05,0.06-0.07c-0.51,1.6-0.99,3.21-1.39,4.84c-0.49,1.98-1.02,4.14-0.77,6.19c0.08,0.65,0.26,2.08,1.18,2.22
		c0.49,0.08,0.92-0.32,1.24-0.6c0.94-0.81,1.69-1.84,2.45-2.8c2.6-3.3,5.04-6.71,7.62-10.02c1.22-1.57,2.46-3.13,3.81-4.61
		c0.19-0.21,0.39-0.39,0.59-0.59c-0.18,0.54-0.36,1.07-0.54,1.61c-0.76,2.22-1.51,4.44-2.16,6.69c-0.58,2.01-1.15,4.21-0.88,6.3
		c0.2,1.53,0.86,2.68,2.69,2.33c1.54-0.3,9.68-6.32,11.25-8.41c-0.01,0.05-0.03,0.1-0.05,0.15c-0.46,1.52-0.94,3.08-1.15,4.66
		c-0.12,0.95-0.2,4.73,1.71,3.52c0.99-0.63,1.81-1.67,2.59-2.51c2.73-2.94,5.36-5.97,8.06-8.94c1.39-1.53,2.79-3.05,4.25-4.52
		c0.17-0.17,0.35-0.34,0.52-0.51c-1.15,2.3-2.29,4.61-3.16,7.01c-0.74,2.04-1.32,4.24-1.08,6.41c0.14,1.32,0.77,3.09,2.49,2.74
		c1.89-0.39,3.58-2.16,4.92-3.37c1.52-1.38,2.98-2.83,4.4-4.3c-0.1,1.63,0.07,3.25,0.59,4.78c0.4,1.2,1.21,2.74,2.75,2.7
		c1.23-0.03,2.47-0.6,3.51-1.19c2.88-1.65,5.34-4.05,7.59-6.4c1.57-1.63,3.05-3.33,4.5-5.07c-0.36,1.35-0.67,2.71-0.89,4.07
		c-0.26,1.56-0.9,7.45,2.3,6.63c1.48-0.38,2.8-1.6,3.93-2.52c2.99-2.43,5.75-5.14,8.38-7.96c0.01,0.89,0.05,2.35,0.86,2.98
		c0.14,0.11,0.08,0.07,0.4,0.2c0.3,0,0.55-0.13,0.73-0.36c2.12-1.87,4.16-3.49,6.42-5.16c1.78-1.32,3.62-2.58,5.56-3.69
		c1.39-0.79,3.23-1.79,4.67-1.88c0.22-0.01,0.43,0.03,0.65,0.02c0.02,0,0.05,0.01,0.09,0.02c0,0.01-0.01,0.02-0.01,0.03
		c-0.11,0.31-0.25,0.62-0.37,0.93c0,0,0,0,0,0c-0.01,0.02-0.01,0.02-0.02,0.04c-0.09,0.18-0.18,0.35-0.27,0.53
		c-0.2,0.37-0.4,0.73-0.62,1.08c-0.11,0.18-0.23,0.37-0.35,0.55c-0.04,0.06-0.16,0.24-0.22,0.32c-1.14,1.57-2.48,3-3.98,4.27
		c-4.18,3.53-9.9,6.9-15.43,7.21c-2.1,0.12-2.24,5.04-0.55,4.95c10.28-0.58,20.09-8.46,23.54-15.83c0.85-1.82,1.25-3.9,1.24-5.9
		c0-1.37-0.15-3.38-1.46-4.27c-1.2-0.82-3.02-0.13-4.21,0.36c-2.15,0.87-4.12,2.14-6,3.44c-1.61,1.1-3.18,2.26-4.71,3.46
		c0.06-0.06,0.11-0.13,0.17-0.19c7.41-8.68,14.18-17.85,20.49-27.28c3.77-5.63,7.38-11.36,10.75-17.21
		c1.87-3.23,3.89-6.59,5.02-10.13C454.82,311.84,456.06,305.47,452.84,306.67z M441.46,329.32c-5.94,9.35-12.37,18.44-19.34,27.12
		c0.53-1.02,1.04-2.05,1.58-3.06c2.54-4.8,5.13-9.59,7.9-14.27c3.85-6.51,8.22-12.41,13.16-18.27c1.61-1.91,3.28-3.81,5.09-5.56
		C447.26,320.07,444.39,324.72,441.46,329.32z"/>
	<g>
		
			<linearGradient id="SVGID_00000170981639581117188340000004872852886714918321_" gradientUnits="userSpaceOnUse" x1="196.2729" y1="216.2199" x2="148.2207" y2="144.7235">
			<stop  offset="0" style="stop-color:#FFFFFF;stop-opacity:0.2"/>
			<stop  offset="1" style="stop-color:#FFFFFF;stop-opacity:0"/>
		</linearGradient>
		<path style="fill:url(#SVGID_00000170981639581117188340000004872852886714918321_);" d="M205.26,193
			c-0.52-0.66-1.02-1.34-1.53-2.01c-16.81-2.3-32.89,0.25-45.96,7.28c5.02,6.47,10.94,12.24,17.55,17.13
			c13.17-3.23,25.87-7.67,37.95-13.23C210.51,199.31,207.83,196.25,205.26,193z"/>
		
			<linearGradient id="SVGID_00000034773084042089191060000001982300068907973293_" gradientUnits="userSpaceOnUse" x1="235.0495" y1="190.1584" x2="186.9973" y2="118.6621">
			<stop  offset="0" style="stop-color:#FFFFFF;stop-opacity:0.2"/>
			<stop  offset="1" style="stop-color:#FFFFFF;stop-opacity:0"/>
		</linearGradient>
		<path style="fill:url(#SVGID_00000034773084042089191060000001982300068907973293_);" d="M238.38,160.13L238.38,160.13
			c-15.29-20.34-34.66-34.96-54.37-41.5c1,23.69,10.11,48.84,26.13,69.21c3.16,4.02,6.47,7.71,9.89,11.08
			c10.85-5.46,21.17-11.82,30.86-18.98C247.37,173.2,243.21,166.56,238.38,160.13z"/>
		
			<linearGradient id="SVGID_00000142175401227705727550000003206005915009654428_" gradientUnits="userSpaceOnUse" x1="297.4785" y1="148.2003" x2="249.4263" y2="76.704">
			<stop  offset="0" style="stop-color:#FFFFFF;stop-opacity:0.2"/>
			<stop  offset="1" style="stop-color:#FFFFFF;stop-opacity:0"/>
		</linearGradient>
		<path style="fill:url(#SVGID_00000142175401227705727550000003206005915009654428_);" d="M299.15,130.33
			c4.53-27.07,1.93-52.81-7.17-74.5c-18.64,15.73-32.38,40.35-36.45,69.09c0,0,0,0,0,0c-2.5,17.44-1.22,34.28,2.81,49.24
			C273.92,161.56,287.67,146.8,299.15,130.33z"/>
	</g>
</g>
</svg>
